# xmcd
#
# Track frame offsets:
#	150
#	26027
#	52508
#	68713
#	99099
#	128852
#	145529
#
# Disc length: 2211 seconds
#
# Revision: 0
# Processed by: cddbd v1.4PL0 Copyright (c) Steve Scherf et al.
# Submitted via: dBpowerAMP V4.0
#
DISCID=4d08a107
DTITLE=Brooklyn Bounce - uknown
DYEAR=1900
DGENRE=Pop/Funk
TTITLE0=the down
TTITLE1=blank
TTITLE2=get ready to bounce
TTITLE3=get your ass on the damn floor
TTITLE4=superassbassmother
TTITLE5=bass,beat,melody
TTITLE6=the real bass
EXTD=
EXTT0=
EXTT1=
EXTT2=
EXTT3=
EXTT4=
EXTT5=
EXTT6=
PLAYORDER=
